<svg id="Capa_1" enable-background="new 0 0 512 512" height="512" viewBox="0 0 512 512" width="512" xmlns="http://www.w3.org/2000/svg"><g><g><path d="m408.269 286.298c0-33.776 13.61-64.371 35.641-86.609h-363.687c-24.676 0-44.68 20.004-44.68 44.68v83.858c0 24.676 20.004 44.68 44.68 44.68h363.687c-22.031-22.238-35.641-52.833-35.641-86.609z" fill="#eaeaea"/></g><g><path d="m408.269 286.298c0-33.776 13.61-64.371 35.641-86.609h-49.204c-22.031 22.238-35.641 52.833-35.641 86.609s13.61 64.37 35.641 86.609h49.204c-22.031-22.238-35.641-52.833-35.641-86.609z" fill="#c6d0da"/></g><g><path d="m447.93 380.404h-367.707c-28.771 0-52.177-23.406-52.177-52.177v-83.857c0-28.771 23.406-52.177 52.177-52.177h367.707c4.141 0 7.497 3.357 7.497 7.497 0 4.141-3.356 7.497-7.497 7.497h-367.707c-20.503 0-37.183 16.68-37.183 37.183v83.857c0 20.503 16.68 37.183 37.183 37.183h367.707c4.141 0 7.497 3.357 7.497 7.497s-3.356 7.497-7.497 7.497z" fill="#c73044"/></g><g><g><path d="m493.548 184.695h-388.03c-26.459 0-47.909-21.45-47.909-47.909 0-26.459 21.45-47.909 47.909-47.909h388.031s-10.303 25.805-10.303 47.909 10.302 47.909 10.302 47.909z" fill="#eaeaea"/></g></g><g><g><path d="m493.548 88.877h-36.321s-10.303 25.805-10.303 47.909 10.303 47.909 10.303 47.909h36.321s-10.303-25.805-10.303-47.909 10.303-47.909 10.303-47.909z" fill="#c6d0da"/></g></g><g><g><path d="m501.933 192.192h-396.415c-30.551 0-55.406-24.855-55.406-55.406s24.855-55.406 55.406-55.406h396.416c4.141 0 7.497 3.357 7.497 7.497s-3.356 7.497-7.497 7.497h-396.416c-22.283 0-40.411 18.129-40.411 40.411 0 22.283 18.129 40.412 40.411 40.412h396.416c4.141 0 7.497 3.357 7.497 7.497 0 4.142-3.357 7.498-7.498 7.498z" fill="#394949"/></g></g><g><g><path d="m495.256 493.571h-434.924c-29.18 0-52.835-23.655-52.835-52.835 0-29.18 23.655-52.835 52.835-52.835h434.924s-11.362 28.459-11.362 52.835 11.362 52.835 11.362 52.835z" fill="#eaeaea"/></g></g><g><g><path d="m495.256 387.901h-40.055s-11.362 28.459-11.362 52.835 11.362 52.835 11.362 52.835h40.055s-11.362-28.459-11.362-52.835 11.362-52.835 11.362-52.835z" fill="#c6d0da"/></g></g><g><g><path d="m504.503 501.068h-444.171c-33.267 0-60.332-27.065-60.332-60.332s27.065-60.332 60.332-60.332h444.171c4.141 0 7.497 3.357 7.497 7.497s-3.356 7.497-7.497 7.497h-444.171c-24.999 0-45.337 20.338-45.337 45.337s20.338 45.337 45.337 45.337h444.171c4.141 0 7.497 3.357 7.497 7.497s-3.356 7.499-7.497 7.499z" fill="#0571f9"/></g></g><g><path d="m435.202 46.156c0-10.877 4.496-20.698 11.723-27.726h-411.349c-15.313 0-27.726 12.413-27.726 27.726 0 15.313 12.414 27.727 27.727 27.727h411.348c-7.227-7.028-11.723-16.85-11.723-27.727z" fill="#eaeaea"/></g><g><path d="m435.202 46.156c0-10.877 4.496-20.698 11.723-27.726h-37.955c-7.227 7.028-11.723 16.85-11.723 27.726 0 10.877 4.496 20.699 11.723 27.727h37.955c-7.227-7.028-11.723-16.85-11.723-27.727z" fill="#c6d0da"/></g><g><path d="m446.925 81.38h-411.349c-19.423 0-35.224-15.801-35.224-35.224s15.801-35.224 35.224-35.224h411.348c4.141 0 7.497 3.357 7.497 7.497s-3.356 7.497-7.497 7.497h-411.348c-11.155 0-20.229 9.075-20.229 20.229s9.075 20.229 20.229 20.229h411.349c4.141 0 7.497 3.357 7.497 7.497 0 4.142-3.356 7.499-7.497 7.499z" fill="#bb80e0"/></g><g><path d="m385.354 290.266h-164.793c-4.141 0-7.497-3.357-7.497-7.497 0-4.141 3.357-7.497 7.497-7.497h164.793c4.141 0 7.497 3.357 7.497 7.497 0 4.141-3.356 7.497-7.497 7.497z" fill="#c6d0da"/></g><g><path d="m330.948 458.24h-33.682c-4.141 0-7.497-3.357-7.497-7.497s3.356-7.497 7.497-7.497h33.682c4.141 0 7.497 3.357 7.497 7.497s-3.356 7.497-7.497 7.497z" fill="#c6d0da"/></g><g><path d="m264.434 458.24h-127.382c-4.141 0-7.497-3.357-7.497-7.497s3.357-7.497 7.497-7.497h127.383c4.141 0 7.497 3.357 7.497 7.497s-3.357 7.497-7.498 7.497z" fill="#c6d0da"/></g><g><path d="m266.002 131.851h-19.267c-4.141 0-7.497-3.357-7.497-7.497s3.357-7.497 7.497-7.497h19.267c4.141 0 7.497 3.357 7.497 7.497s-3.356 7.497-7.497 7.497z" fill="#c6d0da"/></g><g><g><g><path d="m177.956 330.284-28.081-20.537-28.081 20.537c-2.623 1.919-6.315.045-6.315-3.205v-74.685h68.791v74.685c.001 3.25-3.69 5.123-6.314 3.205z" fill="#c73044"/></g></g><g><g><path d="m149.875 252.393v57.353l28.081 20.537c2.623 1.919 6.315.045 6.315-3.205v-74.685z" fill="#952436"/></g></g></g><g><path d="m213.813 259.891h-123.971c-4.141 0-7.497-3.357-7.497-7.497s3.357-7.497 7.497-7.497h123.971c4.141 0 7.497 3.357 7.497 7.497s-3.356 7.497-7.497 7.497z" fill="#c6d0da"/></g><g><path d="m307.338 124.353v109.909c0 2.852 3.533 4.184 5.416 2.042l12.32-14.019c.792-.901 2.196-.901 2.989 0l12.32 14.019c1.883 2.143 5.416.811 5.416-2.042v-109.909z" fill="#c73044"/></g><g><path d="m326.568 124.353v97.255c.549 0 1.098.225 1.494.676l12.32 14.019c1.883 2.143 5.416.811 5.416-2.042v-109.908z" fill="#952436"/></g><g><path d="m421.237 131.851h-123.971c-4.141 0-7.497-3.357-7.497-7.497s3.356-7.497 7.497-7.497h123.971c4.141 0 7.497 3.357 7.497 7.497s-3.356 7.497-7.497 7.497z" fill="#c6d0da"/></g></g></svg>