<svg height="512pt" viewBox="0 0 512 512" width="512pt" xmlns="http://www.w3.org/2000/svg"><path d="m453.332031 0h-224c-32.363281 0-58.664062 26.304688-58.664062 58.667969v51.902343c6.890625-2.433593 14.015625-3.902343 21.332031-3.902343 17.089844 0 33.171875 6.65625 45.246094 18.75l85.335937 85.335937c12.09375 12.074219 18.75 28.15625 18.75 45.246094s-6.65625 33.171875-18.75 45.246094l-85.335937 85.335937c-12.074219 12.09375-28.15625 18.75-45.246094 18.75-7.339844 0-14.464844-1.46875-21.332031-3.902343v51.902343c0 32.363281 26.300781 58.667969 58.664062 58.667969h224c32.363281 0 58.667969-26.304688 58.667969-58.667969v-394.664062c0-32.363281-26.304688-58.667969-58.667969-58.667969zm0 0" fill="#42a5f5"/><path d="m183.828125 361.046875c-7.957031-3.308594-13.160156-11.09375-13.160156-19.714844v-64h-149.335938c-11.773437 0-21.332031-9.554687-21.332031-21.332031s9.558594-21.332031 21.332031-21.332031h149.335938v-64c0-8.621094 5.203125-16.40625 13.160156-19.714844 7.980469-3.304687 17.152344-1.46875 23.253906 4.632813l85.332031 85.332031c8.34375 8.339843 8.34375 21.824219 0 30.164062l-85.332031 85.332031c-6.101562 6.101563-15.273437 7.9375-23.253906 4.632813zm0 0" fill="#607d8b"/></svg>